<svg id="Layer_1" enable-background="new 0 0 512 512" height="512" viewBox="0 0 512 512" width="512" xmlns="http://www.w3.org/2000/svg"><g><path d="m256 512c-44.112 0-80-35.888-80-80v-160c0-44.112 35.888-80 80-80s80 35.888 80 80v160c0 44.112-35.888 80-80 80zm0-288c-26.467 0-48 21.533-48 48v160c0 26.467 21.533 48 48 48 26.468 0 48-21.533 48-48v-160c0-26.467-21.532-48-48-48z"/><path d="m256 160c-44.112 0-80-35.888-80-80s35.888-80 80-80 80 35.888 80 80-35.888 80-80 80zm0-128c-26.467 0-48 21.533-48 48s21.533 48 48 48 48-21.533 48-48-21.533-48-48-48z"/></g></svg>