<svg height="480pt" viewBox="-31 0 479 480" width="480pt" xmlns="http://www.w3.org/2000/svg"><path d="m392.5 8h-368c-8.835938 0-16 7.164062-16 16v49h400v-49c0-8.835938-7.164062-16-16-16zm0 0" fill="#78b9eb"/><path d="m39.835938 440.679688c.371093 17.40625 14.589843 31.324218 32 31.320312h273.335937c17.410156.003906 31.628906-13.914062 32-31.320312l7.328125-344.679688h-352zm256.664062-288.679688c0-8.835938 7.164062-16 16-16h8c8.835938 0 16 7.164062 16 16v264c0 8.835938-7.164062 16-16 16h-8c-8.835938 0-16-7.164062-16-16zm-72 0c0-8.835938 7.164062-16 16-16h8c8.835938 0 16 7.164062 16 16v264c0 8.835938-7.164062 16-16 16h-8c-8.835938 0-16-7.164062-16-16zm-72 0c0-8.835938 7.164062-16 16-16h8c8.835938 0 16 7.164062 16 16v264c0 8.835938-7.164062 16-16 16h-8c-8.835938 0-16-7.164062-16-16zm-72 0c0-8.835938 7.164062-16 16-16h8c8.835938 0 16 7.164062 16 16v264c0 8.835938-7.164062 16-16 16h-8c-8.835938 0-16-7.164062-16-16zm0 0" fill="#78b9eb"/><g fill="#006df0"><path d="m392.5 0h-368c-13.253906 0-24 10.746094-24 24v56c0 13.253906 10.746094 24 24 24h.167969l7.199219 336.847656c.578124 21.710938 18.285156 39.039063 40 39.152344h273.304687c21.714844-.113281 39.421875-17.441406 40-39.152344l7.160156-336.847656h.167969c13.253906 0 24-10.746094 24-24v-56c0-13.253906-10.746094-24-24-24zm-368 16h368c4.417969 0 8 3.582031 8 8v41h-384v-41c0-4.417969 3.582031-8 8-8zm344.664062 424.511719c-.34375 13.027343-10.96875 23.421875-24 23.488281h-273.335937c-13.03125-.066406-23.660156-10.46875-24-23.496094l-7.160156-336.503906h335.664062zm23.335938-352.511719h-368c-3.992188-.035156-7.335938-3.035156-7.800781-7h383.601562c-.464843 3.964844-3.808593 6.964844-7.800781 7zm0 0"/><path d="m96.5 440h8c13.253906 0 24-10.746094 24-24v-264c0-13.253906-10.746094-24-24-24h-8c-13.253906 0-24 10.746094-24 24v264c0 13.253906 10.746094 24 24 24zm-8-288c0-4.417969 3.582031-8 8-8h8c4.417969 0 8 3.582031 8 8v264c0 4.417969-3.582031 8-8 8h-8c-4.417969 0-8-3.582031-8-8zm0 0"/><path d="m168.5 440h8c13.253906 0 24-10.746094 24-24v-264c0-13.253906-10.746094-24-24-24h-8c-13.253906 0-24 10.746094-24 24v264c0 13.253906 10.746094 24 24 24zm-8-288c0-4.417969 3.582031-8 8-8h8c4.417969 0 8 3.582031 8 8v264c0 4.417969-3.582031 8-8 8h-8c-4.417969 0-8-3.582031-8-8zm0 0"/><path d="m240.5 440h8c13.253906 0 24-10.746094 24-24v-264c0-13.253906-10.746094-24-24-24h-8c-13.253906 0-24 10.746094-24 24v264c0 13.253906 10.746094 24 24 24zm-8-288c0-4.417969 3.582031-8 8-8h8c4.417969 0 8 3.582031 8 8v264c0 4.417969-3.582031 8-8 8h-8c-4.417969 0-8-3.582031-8-8zm0 0"/><path d="m312.5 440h8c13.253906 0 24-10.746094 24-24v-264c0-13.253906-10.746094-24-24-24h-8c-13.253906 0-24 10.746094-24 24v264c0 13.253906 10.746094 24 24 24zm-8-288c0-4.417969 3.582031-8 8-8h8c4.417969 0 8 3.582031 8 8v264c0 4.417969-3.582031 8-8 8h-8c-4.417969 0-8-3.582031-8-8zm0 0"/></g></svg>